<svg width="20" height="18" viewBox="0 0 20 18" fill="none" xmlns="http://www.w3.org/2000/svg">
<path d="M0.835596 8.63094L5.21358 10.4089L6.90813 16.3386C7.01656 16.7184 7.44336 16.8588 7.72665 16.6068L10.167 14.4421C10.4228 14.2153 10.7872 14.204 11.0545 14.4151L15.4561 17.8923C15.7591 18.1319 16.1884 17.9512 16.2644 17.5528L19.4888 0.676686C19.5718 0.241433 19.1787 -0.121668 18.7978 0.0386231L0.830466 7.5805C0.387069 7.76656 0.390933 8.44963 0.835596 8.63094ZM6.63504 9.46243L15.1913 3.72842C15.345 3.62567 15.5032 3.85191 15.3712 3.98519L8.30983 11.1273C8.06162 11.3787 7.90152 11.7151 7.85617 12.0803L7.61563 14.0199C7.58377 14.2789 7.24943 14.3046 7.18376 14.054L6.25865 10.517C6.15269 10.1136 6.3071 9.68268 6.63504 9.46243Z" fill="white"/>
</svg>
