<svg width="16" height="16" viewBox="0 0 16 16" fill="none" xmlns="http://www.w3.org/2000/svg">
<path d="M7.99758 0C3.58057 0 0 3.58715 0 8.02698C0 8.82086 0.117396 9.60003 0.352187 10.3498C0.498932 10.144 0.645676 9.93817 0.777747 9.71764C1.33538 8.89436 1.87833 8.07108 2.42129 7.2331L2.8175 6.60094C2.94957 6.39512 3.08164 6.1746 3.19903 5.96878C3.46317 5.54244 3.71264 5.1161 3.94743 4.68976C4.06483 4.46923 4.18222 4.26341 4.31429 4.04289C4.44636 3.82237 4.54908 3.61655 4.66648 3.39603C4.78387 3.17551 4.90127 2.95499 5.00399 2.74917L5.32683 2.0876L5.35618 2.0435C5.53227 1.69066 5.95783 1.54365 6.32469 1.70537C6.58883 1.85238 6.75025 2.13171 6.73558 2.44044C6.73558 2.82267 6.66221 3.21961 6.63286 3.60185C6.60351 3.98409 6.58883 4.38103 6.55949 4.77796C6.53014 5.55714 6.51546 6.35102 6.51546 7.13019C6.51546 7.90937 6.55949 8.68854 6.63286 9.43832C6.67688 9.80585 6.73558 10.1734 6.80895 10.5409C6.86765 10.8644 6.97037 11.1878 7.11711 11.4818C7.16114 11.57 7.21984 11.6582 7.29321 11.7317C7.33723 11.7611 7.30788 11.7464 7.33723 11.7464C7.36658 11.7464 7.35191 11.7464 7.36658 11.7464L7.39593 11.7317H7.4106L7.45463 11.717C7.4693 11.7023 7.49865 11.6876 7.51333 11.6729C7.63072 11.5847 7.73344 11.4818 7.83616 11.3642C8.07096 11.0849 8.29107 10.8056 8.48184 10.4968C8.68728 10.1881 8.87805 9.84996 9.06882 9.51182C9.45035 8.83556 9.80254 8.14459 10.1401 7.43892C10.3015 7.08609 10.4776 6.73325 10.639 6.36572C10.8004 6.01288 10.9618 5.64535 11.1086 5.29251C11.2553 4.92498 11.6809 4.74856 12.0477 4.89558C12.2825 4.98378 12.4439 5.1896 12.488 5.43953C12.488 5.52774 12.5026 5.64535 12.5173 5.76296L12.5613 6.10109C12.5907 6.32161 12.62 6.54214 12.6641 6.76266C12.7374 7.2037 12.8255 7.64474 12.9429 8.07108C13.0603 8.49743 13.207 8.92377 13.3831 9.33541C13.5592 9.74705 13.7793 10.1293 14.0581 10.4821C14.1168 10.5703 14.1022 10.6879 14.0288 10.7467C13.9554 10.8056 13.8527 10.8056 13.794 10.7467C13.4271 10.4233 13.1043 10.0558 12.8255 9.65884C12.5467 9.2619 12.3119 8.83556 12.0918 8.40922C11.945 8.11519 11.8276 7.82116 11.6955 7.52713C11.6075 7.70355 11.5341 7.87997 11.4461 8.04168C11.0939 8.76205 10.7417 9.48242 10.3308 10.2028C10.1254 10.585 9.91994 10.9379 9.68515 11.2907C9.45035 11.6582 9.18621 12.0111 8.9074 12.3345C8.74598 12.5256 8.55521 12.6873 8.36444 12.849C8.30575 12.8932 8.24705 12.9373 8.17368 12.9667L8.04161 13.0402L7.96823 13.0696H7.95356L7.90954 13.0843H7.88019L7.82149 13.099C7.77746 13.1137 7.74812 13.1284 7.70409 13.1284C7.61605 13.1431 7.528 13.1578 7.43995 13.1725C7.24919 13.1872 7.04374 13.1578 6.86765 13.099C6.69156 13.0402 6.53014 12.9373 6.38339 12.8196C6.16327 12.6285 5.97251 12.3933 5.84044 12.1287C5.63499 11.717 5.48825 11.276 5.4002 10.8203C5.31216 10.4086 5.25346 9.98227 5.20943 9.57063C5.12139 8.74735 5.09204 7.93877 5.07736 7.11549C5.07736 6.73325 5.07736 6.33632 5.07736 5.95408C4.93062 6.23341 4.78387 6.51273 4.63713 6.77736C4.51973 6.99788 4.40234 7.2184 4.27027 7.43892L3.90341 8.10049C3.40448 8.98257 2.89087 9.84996 2.34791 10.7173C2.0104 11.276 1.65821 11.8346 1.30603 12.3786C3.72731 16.0834 8.68728 17.1125 12.3852 14.6867C16.0832 12.261 17.1104 7.29191 14.6891 3.58715C13.207 1.36723 10.6977 0 7.99758 0Z" fill="white"/>
</svg>
