<svg width="22" height="17" viewBox="0 0 22 17" fill="none" xmlns="http://www.w3.org/2000/svg">
<path d="M17.729 6.216C17.456 2.74275 14.5422 0 11 0C7.97 0 5.369 1.968 4.52975 4.83825C2.13575 5.66925 0.5 7.93725 0.5 10.5C0.5 13.8082 3.19175 16.5 6.5 16.5H16.25C19.145 16.5 21.5 14.145 21.5 11.25C21.5 8.88825 19.9475 6.861 17.729 6.216ZM14.5303 10.2803L11.5303 13.2803C11.384 13.4265 11.192 13.5 11 13.5C10.808 13.5 10.616 13.4265 10.4698 13.2803L7.46975 10.2803C7.25525 10.0658 7.19075 9.74325 7.307 9.46275C7.42325 9.183 7.697 9 8 9H9.5V6C9.5 5.172 10.172 4.5 11 4.5C11.828 4.5 12.5 5.172 12.5 6V9H14C14.303 9 14.5767 9.183 14.693 9.46275C14.8092 9.74325 14.7448 10.0658 14.5303 10.2803Z" fill="white"/>
</svg>
