<svg width="158" height="40" viewBox="0 0 158 40" fill="none" xmlns="http://www.w3.org/2000/svg">
<path d="M0 40H35.5825V5.61327e-08H0V40ZM28.7337 16.1513H21.2149V7.69902H28.7337V16.1513ZM6.84737 7.69902H14.3703V23.8487H28.7337V32.301H6.84737V7.69902ZM58.7534 5.61327e-08C55.2345 5.61327e-08 51.7948 1.17299 48.8691 3.37062C45.9433 5.56825 43.663 8.69182 42.3164 12.3463C40.9698 16.0009 40.6176 20.0221 41.304 23.9017C41.9905 27.7813 43.6849 31.345 46.173 34.142C48.6612 36.9392 51.8313 38.844 55.2824 39.6157C58.7337 40.3873 62.3108 39.9914 65.5618 38.4776C68.8128 36.9639 71.5912 34.4004 73.5463 31.1114C75.5011 27.8224 76.5446 23.9555 76.5446 20C76.5391 14.6975 74.6628 9.61409 71.3275 5.86471C67.9922 2.11532 63.4703 0.00619109 58.7534 5.61327e-08ZM58.7534 32.301C56.5892 32.301 54.4735 31.5796 52.674 30.2278C50.8746 28.8762 49.472 26.9552 48.6438 24.7074C47.8156 22.4597 47.5989 19.9864 48.0211 17.6001C48.4434 15.214 49.4856 13.0222 51.0158 11.3019C52.5462 9.58158 54.496 8.41002 56.6186 7.93539C58.7412 7.46075 60.9413 7.70435 62.9409 8.63538C64.9403 9.5664 66.6494 11.1431 67.8517 13.166C69.0541 15.1888 69.6959 17.5671 69.6959 20C69.6914 23.261 68.5371 26.3869 66.486 28.6927C64.4348 30.9985 61.6541 32.296 58.7534 32.301ZM140.21 5.61327e-08C136.691 -0.00029624 133.251 1.17241 130.325 3.36985C127.4 5.56729 125.119 8.69076 123.772 12.3453C122.425 15.9997 122.073 20.0212 122.759 23.9008C123.445 27.7806 125.14 31.3444 127.628 34.1416C130.116 36.9388 133.286 38.8438 136.738 39.6156C140.188 40.3873 143.766 39.9914 147.017 38.4778C150.268 36.964 153.046 34.4006 155.001 31.1116C156.957 27.8225 158 23.9557 158 20C157.994 14.6978 156.119 9.61459 152.784 5.86526C149.449 2.11591 144.927 0.00661214 140.21 5.61327e-08ZM140.21 32.301C138.046 32.3013 135.931 31.58 134.13 30.2286C132.331 28.8772 130.928 26.9561 130.1 24.7084C129.271 22.4608 129.054 19.9874 129.476 17.6011C129.898 15.215 130.941 13.023 132.471 11.3024C134.001 9.58197 135.951 8.41026 138.074 7.9355C140.196 7.46074 142.396 7.70425 144.395 8.63524C146.396 9.56622 148.105 11.1429 149.308 13.1658C150.509 15.1888 151.151 17.5671 151.151 20C151.147 23.2606 149.993 26.3863 147.941 28.6921C145.891 30.9979 143.111 32.2957 140.21 32.301ZM99.4811 5.61327e-08C95.9622 5.61327e-08 92.5225 1.17299 89.5968 3.37062C86.671 5.56825 84.3907 8.69182 83.0441 12.3463C81.6975 16.0009 81.3453 20.0221 82.0317 23.9017C82.7182 27.7813 84.4126 31.345 86.9007 34.142C89.3888 36.9392 92.559 38.844 96.0101 39.6157C99.4613 40.3873 103.038 39.9914 106.289 38.4776C109.54 36.9639 112.319 34.4004 114.274 31.1114C116.229 27.8224 117.272 23.9555 117.272 20C117.267 14.6975 115.391 9.61409 112.055 5.86471C108.72 2.11532 104.198 0.00619109 99.4811 5.61327e-08ZM99.4811 32.301C97.4646 32.302 95.4872 31.6769 93.7669 30.4943C92.0468 29.3118 90.6505 27.6181 89.7326 25.5998C88.8148 23.5816 88.4107 21.3174 88.5653 19.0575C88.7198 16.7973 89.4267 14.6292 90.6082 12.7924C91.7897 10.9556 93.3997 9.52141 95.2604 8.64828C97.1213 7.77512 99.1605 7.49695 101.153 7.84442C103.146 8.19192 105.014 9.15154 106.552 10.6174C108.09 12.0833 109.238 13.9984 109.869 16.1513H99.4811V23.8487H109.869C109.146 26.3053 107.754 28.444 105.889 29.961C104.025 31.4782 101.783 32.2967 99.4811 32.301Z" fill="#F2C94C"/>
</svg>
